<mxfile host="app.diagrams.net" modified="2023-03-30T15:34:08.723Z" agent="Mozilla/5.0 (Windows NT 10.0; Win64; x64) AppleWebKit/537.36 (KHTML, like Gecko) Chrome/111.0.0.0 Safari/537.36 Edg/111.0.1661.54" version="21.1.2" etag="lVqJi-n4WZBGfXKQLWNY" type="github">
  <diagram name="PÃ¡gina-1" id="qGM8ifphMGsdWd6p8g96">
    <mxGraphModel>
      <root>
        <mxCell id="0" />
        <mxCell id="1" parent="0" />
      </root>
    </mxGraphModel>
  </diagram>
</mxfile>
